<mxfile host="Electron" modified="2023-04-24T09:00:22.897Z" agent="Mozilla/5.0 (X11; Linux x86_64) AppleWebKit/537.36 (KHTML, like Gecko) draw.io/21.1.2 Chrome/106.0.5249.199 Electron/21.4.3 Safari/537.36" etag="VnxBaURmVUHj9sJWhjks" version="21.1.2" type="device">
  <diagram id="C5RBs43oDa-KdzZeNtuy" name="Page-1">
    <mxGraphModel dx="3217" dy="3640" grid="1" gridSize="10" guides="1" tooltips="1" connect="0" arrows="1" fold="1" page="1" pageScale="1" pageWidth="827" pageHeight="1169" math="0" shadow="0">
      <root>
        <mxCell id="WIyWlLk6GJQsqaUBKTNV-0" />
        <mxCell id="WIyWlLk6GJQsqaUBKTNV-1" parent="WIyWlLk6GJQsqaUBKTNV-0" />
        <mxCell id="kCM1FT8XMwVdJC8RZSaU-5" value="&amp;lt;&amp;lt;interface&amp;gt;&amp;gt;&lt;br&gt;AddAccount" style="swimlane;fontStyle=0;childLayout=stackLayout;horizontal=1;startSize=30;fillColor=none;horizontalStack=0;resizeParent=1;resizeParentMax=0;resizeLast=0;collapsible=1;marginBottom=0;whiteSpace=wrap;html=1;" parent="WIyWlLk6GJQsqaUBKTNV-1" vertex="1" collapsed="1">
          <mxGeometry x="136" y="-589" width="110" height="40" as="geometry">
            <mxRectangle x="-640" y="-544.5" width="340" height="56" as="alternateBounds" />
          </mxGeometry>
        </mxCell>
        <mxCell id="kCM1FT8XMwVdJC8RZSaU-6" value="add (account: AddAccountModel): Promise&amp;lt;AccountModel&amp;gt;" style="text;strokeColor=none;fillColor=none;align=left;verticalAlign=top;spacingLeft=4;spacingRight=4;overflow=hidden;rotatable=0;points=[[0,0.5],[1,0.5]];portConstraint=eastwest;whiteSpace=wrap;html=1;" parent="kCM1FT8XMwVdJC8RZSaU-5" vertex="1">
          <mxGeometry y="30" width="340" height="26" as="geometry" />
        </mxCell>
        <mxCell id="kCM1FT8XMwVdJC8RZSaU-11" value="&amp;lt;&amp;lt;interface&amp;gt;&amp;gt;&lt;br&gt;Authentication" style="swimlane;fontStyle=0;childLayout=stackLayout;horizontal=1;startSize=30;fillColor=none;horizontalStack=0;resizeParent=1;resizeParentMax=0;resizeLast=0;collapsible=1;marginBottom=0;whiteSpace=wrap;html=1;" parent="WIyWlLk6GJQsqaUBKTNV-1" vertex="1" collapsed="1">
          <mxGeometry x="730" y="-410" width="110" height="40" as="geometry">
            <mxRectangle x="730" y="-410" width="370" height="56" as="alternateBounds" />
          </mxGeometry>
        </mxCell>
        <mxCell id="kCM1FT8XMwVdJC8RZSaU-12" value="auth (authentication: AuthenticationModel): Promise&amp;lt;string | null&amp;gt;" style="text;strokeColor=none;fillColor=none;align=left;verticalAlign=top;spacingLeft=4;spacingRight=4;overflow=hidden;rotatable=0;points=[[0,0.5],[1,0.5]];portConstraint=eastwest;whiteSpace=wrap;html=1;" parent="kCM1FT8XMwVdJC8RZSaU-11" vertex="1">
          <mxGeometry y="30" width="370" height="26" as="geometry" />
        </mxCell>
        <mxCell id="kCM1FT8XMwVdJC8RZSaU-13" value="&amp;lt;&amp;lt;interface&amp;gt;&amp;gt;&lt;br&gt;Hasher" style="swimlane;fontStyle=0;childLayout=stackLayout;horizontal=1;startSize=30;fillColor=none;horizontalStack=0;resizeParent=1;resizeParentMax=0;resizeLast=0;collapsible=1;marginBottom=0;whiteSpace=wrap;html=1;" parent="WIyWlLk6GJQsqaUBKTNV-1" vertex="1" collapsed="1">
          <mxGeometry x="1015" y="-400" width="110" height="40" as="geometry">
            <mxRectangle x="-1160" y="-652.5" width="210" height="56" as="alternateBounds" />
          </mxGeometry>
        </mxCell>
        <mxCell id="kCM1FT8XMwVdJC8RZSaU-14" value="hash (velue: string): Promise&amp;lt;string&amp;gt;" style="text;strokeColor=none;fillColor=none;align=left;verticalAlign=top;spacingLeft=4;spacingRight=4;overflow=hidden;rotatable=0;points=[[0,0.5],[1,0.5]];portConstraint=eastwest;whiteSpace=wrap;html=1;" parent="kCM1FT8XMwVdJC8RZSaU-13" vertex="1">
          <mxGeometry y="30" width="210" height="26" as="geometry" />
        </mxCell>
        <mxCell id="kCM1FT8XMwVdJC8RZSaU-15" value="&amp;lt;&amp;lt;interface&amp;gt;&amp;gt;&lt;br&gt;HashComparer" style="swimlane;fontStyle=0;childLayout=stackLayout;horizontal=1;startSize=40;fillColor=none;horizontalStack=0;resizeParent=1;resizeParentMax=0;resizeLast=0;collapsible=1;marginBottom=0;whiteSpace=wrap;html=1;" parent="WIyWlLk6GJQsqaUBKTNV-1" vertex="1" collapsed="1">
          <mxGeometry x="1200" y="-515" width="110" height="40" as="geometry">
            <mxRectangle x="-897" y="-662.5" width="310" height="66" as="alternateBounds" />
          </mxGeometry>
        </mxCell>
        <mxCell id="kCM1FT8XMwVdJC8RZSaU-16" value="compare (value: string, hash: string): Promise&amp;lt;boolean&amp;gt;" style="text;strokeColor=none;fillColor=none;align=left;verticalAlign=top;spacingLeft=4;spacingRight=4;overflow=hidden;rotatable=0;points=[[0,0.5],[1,0.5]];portConstraint=eastwest;whiteSpace=wrap;html=1;" parent="kCM1FT8XMwVdJC8RZSaU-15" vertex="1">
          <mxGeometry y="40" width="310" height="26" as="geometry" />
        </mxCell>
        <mxCell id="kCM1FT8XMwVdJC8RZSaU-18" value="&amp;lt;&amp;lt;interface&amp;gt;&amp;gt;&lt;br&gt;Encrypter" style="swimlane;fontStyle=0;childLayout=stackLayout;horizontal=1;startSize=40;fillColor=none;horizontalStack=0;resizeParent=1;resizeParentMax=0;resizeLast=0;collapsible=1;marginBottom=0;whiteSpace=wrap;html=1;" parent="WIyWlLk6GJQsqaUBKTNV-1" vertex="1" collapsed="1">
          <mxGeometry x="760" y="-130" width="110" height="40" as="geometry">
            <mxRectangle x="760" y="-286" width="220" height="66" as="alternateBounds" />
          </mxGeometry>
        </mxCell>
        <mxCell id="kCM1FT8XMwVdJC8RZSaU-19" value="encrypt (value: string): Promise&amp;lt;string&amp;gt;" style="text;strokeColor=none;fillColor=none;align=left;verticalAlign=top;spacingLeft=4;spacingRight=4;overflow=hidden;rotatable=0;points=[[0,0.5],[1,0.5]];portConstraint=eastwest;whiteSpace=wrap;html=1;" parent="kCM1FT8XMwVdJC8RZSaU-18" vertex="1">
          <mxGeometry y="40" width="220" height="26" as="geometry" />
        </mxCell>
        <mxCell id="kCM1FT8XMwVdJC8RZSaU-20" value="&amp;lt;&amp;lt;interface&amp;gt;&amp;gt;&lt;br&gt;AddAccountRepository" style="swimlane;fontStyle=0;childLayout=stackLayout;horizontal=1;startSize=40;fillColor=none;horizontalStack=0;resizeParent=1;resizeParentMax=0;resizeLast=0;collapsible=1;marginBottom=0;whiteSpace=wrap;html=1;" parent="WIyWlLk6GJQsqaUBKTNV-1" vertex="1" collapsed="1">
          <mxGeometry x="320" y="-320" width="134" height="40" as="geometry">
            <mxRectangle x="-1274" y="-1090" width="360" height="66" as="alternateBounds" />
          </mxGeometry>
        </mxCell>
        <mxCell id="kCM1FT8XMwVdJC8RZSaU-21" value="add (accountData: AddAccountModel): Promise&amp;lt;AccountModel&amp;gt;" style="text;strokeColor=none;fillColor=none;align=left;verticalAlign=top;spacingLeft=4;spacingRight=4;overflow=hidden;rotatable=0;points=[[0,0.5],[1,0.5]];portConstraint=eastwest;whiteSpace=wrap;html=1;" parent="kCM1FT8XMwVdJC8RZSaU-20" vertex="1">
          <mxGeometry y="40" width="360" height="26" as="geometry" />
        </mxCell>
        <mxCell id="kCM1FT8XMwVdJC8RZSaU-23" value="&amp;lt;&amp;lt;interface&amp;gt;&amp;gt;&lt;br&gt;LoadAccountByEmailRepository" style="swimlane;fontStyle=0;childLayout=stackLayout;horizontal=1;startSize=40;fillColor=none;horizontalStack=0;resizeParent=1;resizeParentMax=0;resizeLast=0;collapsible=1;marginBottom=0;whiteSpace=wrap;html=1;" parent="WIyWlLk6GJQsqaUBKTNV-1" vertex="1" collapsed="1">
          <mxGeometry x="490" y="-340" width="190" height="40" as="geometry">
            <mxRectangle x="-864" y="-1090" width="330" height="66" as="alternateBounds" />
          </mxGeometry>
        </mxCell>
        <mxCell id="kCM1FT8XMwVdJC8RZSaU-24" value="loadByEmail (email: string): Promise&amp;lt;AccountModel | null&amp;gt;" style="text;strokeColor=none;fillColor=none;align=left;verticalAlign=top;spacingLeft=4;spacingRight=4;overflow=hidden;rotatable=0;points=[[0,0.5],[1,0.5]];portConstraint=eastwest;whiteSpace=wrap;html=1;" parent="kCM1FT8XMwVdJC8RZSaU-23" vertex="1">
          <mxGeometry y="40" width="330" height="26" as="geometry" />
        </mxCell>
        <mxCell id="QJs-KclyGJPvYKhieISj-35" style="edgeStyle=orthogonalEdgeStyle;rounded=0;orthogonalLoop=1;jettySize=auto;html=1;endArrow=none;endFill=0;startArrow=classic;startFill=1;dashed=1;" edge="1" parent="WIyWlLk6GJQsqaUBKTNV-1" source="kCM1FT8XMwVdJC8RZSaU-25" target="kCM1FT8XMwVdJC8RZSaU-126">
          <mxGeometry relative="1" as="geometry">
            <Array as="points">
              <mxPoint x="375" y="-390" />
            </Array>
          </mxGeometry>
        </mxCell>
        <mxCell id="kCM1FT8XMwVdJC8RZSaU-25" value="&amp;lt;&amp;lt;interface&amp;gt;&amp;gt;&lt;br&gt;UpdateAccessTokenRepository" style="swimlane;fontStyle=0;childLayout=stackLayout;horizontal=1;startSize=40;fillColor=none;horizontalStack=0;resizeParent=1;resizeParentMax=0;resizeLast=0;collapsible=1;marginBottom=0;whiteSpace=wrap;html=1;" parent="WIyWlLk6GJQsqaUBKTNV-1" vertex="1" collapsed="1">
          <mxGeometry x="60" y="-410" width="174" height="40" as="geometry">
            <mxRectangle x="-1654" y="-1090" width="330" height="66" as="alternateBounds" />
          </mxGeometry>
        </mxCell>
        <mxCell id="kCM1FT8XMwVdJC8RZSaU-26" value="updateAccesToken (id: string, token: string): Promise&amp;lt;void&amp;gt;" style="text;strokeColor=none;fillColor=none;align=left;verticalAlign=top;spacingLeft=4;spacingRight=4;overflow=hidden;rotatable=0;points=[[0,0.5],[1,0.5]];portConstraint=eastwest;whiteSpace=wrap;html=1;" parent="kCM1FT8XMwVdJC8RZSaU-25" vertex="1">
          <mxGeometry y="40" width="330" height="26" as="geometry" />
        </mxCell>
        <mxCell id="kCM1FT8XMwVdJC8RZSaU-27" value="&amp;lt;&amp;lt;interface&amp;gt;&amp;gt;&lt;br&gt;LoggingRepository" style="swimlane;fontStyle=0;childLayout=stackLayout;horizontal=1;startSize=40;fillColor=none;horizontalStack=0;resizeParent=1;resizeParentMax=0;resizeLast=0;collapsible=1;marginBottom=0;whiteSpace=wrap;html=1;" parent="WIyWlLk6GJQsqaUBKTNV-1" vertex="1" collapsed="1">
          <mxGeometry x="630" y="-1253.5" width="110" height="40" as="geometry">
            <mxRectangle x="-70" y="-430" width="220" height="66" as="alternateBounds" />
          </mxGeometry>
        </mxCell>
        <mxCell id="kCM1FT8XMwVdJC8RZSaU-28" value="logError (stack: string): Promise&amp;lt;void&amp;gt;" style="text;strokeColor=none;fillColor=none;align=left;verticalAlign=top;spacingLeft=4;spacingRight=4;overflow=hidden;rotatable=0;points=[[0,0.5],[1,0.5]];portConstraint=eastwest;whiteSpace=wrap;html=1;" parent="kCM1FT8XMwVdJC8RZSaU-27" vertex="1">
          <mxGeometry y="40" width="220" height="26" as="geometry" />
        </mxCell>
        <mxCell id="kCM1FT8XMwVdJC8RZSaU-29" value="&amp;lt;&amp;lt;interface&amp;gt;&amp;gt;&lt;br&gt;EmailValidator" style="swimlane;fontStyle=0;childLayout=stackLayout;horizontal=1;startSize=40;fillColor=none;horizontalStack=0;resizeParent=1;resizeParentMax=0;resizeLast=0;collapsible=1;marginBottom=0;whiteSpace=wrap;html=1;" parent="WIyWlLk6GJQsqaUBKTNV-1" vertex="1" collapsed="1">
          <mxGeometry x="-152" y="-450" width="110" height="40" as="geometry">
            <mxRectangle x="-88" y="-430" width="190" height="66" as="alternateBounds" />
          </mxGeometry>
        </mxCell>
        <mxCell id="kCM1FT8XMwVdJC8RZSaU-30" value="isValid (email: string): boolean" style="text;strokeColor=none;fillColor=none;align=left;verticalAlign=top;spacingLeft=4;spacingRight=4;overflow=hidden;rotatable=0;points=[[0,0.5],[1,0.5]];portConstraint=eastwest;whiteSpace=wrap;html=1;" parent="kCM1FT8XMwVdJC8RZSaU-29" vertex="1">
          <mxGeometry y="40" width="190" height="26" as="geometry" />
        </mxCell>
        <mxCell id="kCM1FT8XMwVdJC8RZSaU-31" value="&amp;lt;&amp;lt;interface&amp;gt;&amp;gt;&lt;br&gt;PasswordValidator" style="swimlane;fontStyle=0;childLayout=stackLayout;horizontal=1;startSize=40;fillColor=none;horizontalStack=0;resizeParent=1;resizeParentMax=0;resizeLast=0;collapsible=1;marginBottom=0;whiteSpace=wrap;html=1;" parent="WIyWlLk6GJQsqaUBKTNV-1" vertex="1" collapsed="1">
          <mxGeometry x="-180" y="-1060" width="110" height="40" as="geometry">
            <mxRectangle x="-830" y="-264" width="400" height="66" as="alternateBounds" />
          </mxGeometry>
        </mxCell>
        <mxCell id="kCM1FT8XMwVdJC8RZSaU-32" value="isStrong (password: string): boolean" style="text;strokeColor=none;fillColor=none;align=left;verticalAlign=top;spacingLeft=4;spacingRight=4;overflow=hidden;rotatable=0;points=[[0,0.5],[1,0.5]];portConstraint=eastwest;whiteSpace=wrap;html=1;" parent="kCM1FT8XMwVdJC8RZSaU-31" vertex="1">
          <mxGeometry y="40" width="400" height="26" as="geometry" />
        </mxCell>
        <mxCell id="kCM1FT8XMwVdJC8RZSaU-33" value="&amp;lt;&amp;lt;interface&amp;gt;&amp;gt;&lt;br&gt;Controller" style="swimlane;fontStyle=0;childLayout=stackLayout;horizontal=1;startSize=40;fillColor=none;horizontalStack=0;resizeParent=1;resizeParentMax=0;resizeLast=0;collapsible=1;marginBottom=0;whiteSpace=wrap;html=1;" parent="WIyWlLk6GJQsqaUBKTNV-1" vertex="1" collapsed="1">
          <mxGeometry x="785" y="-810" width="110" height="40" as="geometry">
            <mxRectangle x="-290" y="-20" width="400" height="66" as="alternateBounds" />
          </mxGeometry>
        </mxCell>
        <mxCell id="kCM1FT8XMwVdJC8RZSaU-34" value="handle (httpRequest: HttpRequest): Promise&amp;lt;HttpResponse&amp;gt;" style="text;strokeColor=none;fillColor=none;align=left;verticalAlign=top;spacingLeft=4;spacingRight=4;overflow=hidden;rotatable=0;points=[[0,0.5],[1,0.5]];portConstraint=eastwest;whiteSpace=wrap;html=1;" parent="kCM1FT8XMwVdJC8RZSaU-33" vertex="1">
          <mxGeometry y="40" width="400" height="26" as="geometry" />
        </mxCell>
        <mxCell id="kCM1FT8XMwVdJC8RZSaU-35" value="&amp;lt;&amp;lt;interface&amp;gt;&amp;gt;&lt;br&gt;Validation" style="swimlane;fontStyle=0;childLayout=stackLayout;horizontal=1;startSize=40;fillColor=none;horizontalStack=0;resizeParent=1;resizeParentMax=0;resizeLast=0;collapsible=1;marginBottom=0;whiteSpace=wrap;html=1;" parent="WIyWlLk6GJQsqaUBKTNV-1" vertex="1" collapsed="1">
          <mxGeometry x="-610" y="-705" width="110" height="40" as="geometry">
            <mxRectangle x="330" y="-957.5" width="190" height="66" as="alternateBounds" />
          </mxGeometry>
        </mxCell>
        <mxCell id="kCM1FT8XMwVdJC8RZSaU-36" value="validate (input: any): Error | Null" style="text;strokeColor=none;fillColor=none;align=left;verticalAlign=top;spacingLeft=4;spacingRight=4;overflow=hidden;rotatable=0;points=[[0,0.5],[1,0.5]];portConstraint=eastwest;whiteSpace=wrap;html=1;" parent="kCM1FT8XMwVdJC8RZSaU-35" vertex="1">
          <mxGeometry y="40" width="190" height="26" as="geometry" />
        </mxCell>
        <mxCell id="QJs-KclyGJPvYKhieISj-9" style="edgeStyle=orthogonalEdgeStyle;rounded=0;orthogonalLoop=1;jettySize=auto;html=1;dashed=1;" edge="1" parent="WIyWlLk6GJQsqaUBKTNV-1" source="kCM1FT8XMwVdJC8RZSaU-75" target="kCM1FT8XMwVdJC8RZSaU-5">
          <mxGeometry relative="1" as="geometry" />
        </mxCell>
        <mxCell id="QJs-KclyGJPvYKhieISj-58" style="edgeStyle=orthogonalEdgeStyle;rounded=0;orthogonalLoop=1;jettySize=auto;html=1;entryX=0.502;entryY=0.056;entryDx=0;entryDy=0;entryPerimeter=0;startArrow=diamond;startFill=0;endArrow=none;endFill=0;" edge="1" parent="WIyWlLk6GJQsqaUBKTNV-1" source="kCM1FT8XMwVdJC8RZSaU-75" target="kCM1FT8XMwVdJC8RZSaU-126">
          <mxGeometry relative="1" as="geometry" />
        </mxCell>
        <mxCell id="kCM1FT8XMwVdJC8RZSaU-75" value="&lt;span style=&quot;font-weight: normal;&quot;&gt;DbAddAccount&lt;/span&gt;" style="swimlane;fontStyle=1;align=center;verticalAlign=top;childLayout=stackLayout;horizontal=1;startSize=26;horizontalStack=0;resizeParent=1;resizeParentMax=0;resizeLast=0;collapsible=1;marginBottom=0;whiteSpace=wrap;html=1;" parent="WIyWlLk6GJQsqaUBKTNV-1" vertex="1" collapsed="1">
          <mxGeometry x="380" y="-584" width="120" height="30" as="geometry">
            <mxRectangle x="380" y="-584" width="540" height="112" as="alternateBounds" />
          </mxGeometry>
        </mxCell>
        <mxCell id="kCM1FT8XMwVdJC8RZSaU-76" value="- hasher: Hasher" style="text;strokeColor=none;fillColor=none;align=left;verticalAlign=top;spacingLeft=4;spacingRight=4;overflow=hidden;rotatable=0;points=[[0,0.5],[1,0.5]];portConstraint=eastwest;whiteSpace=wrap;html=1;" parent="kCM1FT8XMwVdJC8RZSaU-75" vertex="1">
          <mxGeometry y="26" width="540" height="26" as="geometry" />
        </mxCell>
        <mxCell id="kCM1FT8XMwVdJC8RZSaU-79" value="- addAccountRepository: AddAccountRepository" style="text;strokeColor=none;fillColor=none;align=left;verticalAlign=top;spacingLeft=4;spacingRight=4;overflow=hidden;rotatable=0;points=[[0,0.5],[1,0.5]];portConstraint=eastwest;whiteSpace=wrap;html=1;" parent="kCM1FT8XMwVdJC8RZSaU-75" vertex="1">
          <mxGeometry y="52" width="540" height="26" as="geometry" />
        </mxCell>
        <mxCell id="kCM1FT8XMwVdJC8RZSaU-255" value="" style="line;strokeWidth=1;fillColor=none;align=left;verticalAlign=middle;spacingTop=-1;spacingLeft=3;spacingRight=3;rotatable=0;labelPosition=right;points=[];portConstraint=eastwest;strokeColor=inherit;" parent="kCM1FT8XMwVdJC8RZSaU-75" vertex="1">
          <mxGeometry y="78" width="540" height="8" as="geometry" />
        </mxCell>
        <mxCell id="kCM1FT8XMwVdJC8RZSaU-254" value="+ &amp;lt;&amp;lt;constructor&amp;gt;&amp;gt; DbAddAccount(hasher: Hasher, addAccountRepository: AddAccountRepository)" style="text;strokeColor=none;fillColor=none;align=left;verticalAlign=top;spacingLeft=4;spacingRight=4;overflow=hidden;rotatable=0;points=[[0,0.5],[1,0.5]];portConstraint=eastwest;whiteSpace=wrap;html=1;" parent="kCM1FT8XMwVdJC8RZSaU-75" vertex="1">
          <mxGeometry y="86" width="540" height="26" as="geometry" />
        </mxCell>
        <mxCell id="QJs-KclyGJPvYKhieISj-18" style="edgeStyle=orthogonalEdgeStyle;rounded=0;orthogonalLoop=1;jettySize=auto;html=1;dashed=1;" edge="1" parent="WIyWlLk6GJQsqaUBKTNV-1" source="kCM1FT8XMwVdJC8RZSaU-88" target="kCM1FT8XMwVdJC8RZSaU-11">
          <mxGeometry relative="1" as="geometry" />
        </mxCell>
        <mxCell id="QJs-KclyGJPvYKhieISj-36" style="edgeStyle=orthogonalEdgeStyle;rounded=0;orthogonalLoop=1;jettySize=auto;html=1;endArrow=none;endFill=0;startArrow=diamond;startFill=0;" edge="1" parent="WIyWlLk6GJQsqaUBKTNV-1" source="kCM1FT8XMwVdJC8RZSaU-88" target="kCM1FT8XMwVdJC8RZSaU-126">
          <mxGeometry relative="1" as="geometry">
            <Array as="points">
              <mxPoint x="660" y="-465" />
              <mxPoint x="660" y="-465" />
            </Array>
          </mxGeometry>
        </mxCell>
        <mxCell id="QJs-KclyGJPvYKhieISj-38" style="edgeStyle=orthogonalEdgeStyle;rounded=0;orthogonalLoop=1;jettySize=auto;html=1;endArrow=none;endFill=0;startArrow=diamond;startFill=0;" edge="1" parent="WIyWlLk6GJQsqaUBKTNV-1" source="kCM1FT8XMwVdJC8RZSaU-88" target="kCM1FT8XMwVdJC8RZSaU-117">
          <mxGeometry relative="1" as="geometry">
            <Array as="points">
              <mxPoint x="880" y="-465" />
              <mxPoint x="880" y="-221" />
            </Array>
          </mxGeometry>
        </mxCell>
        <mxCell id="QJs-KclyGJPvYKhieISj-39" style="edgeStyle=orthogonalEdgeStyle;rounded=0;orthogonalLoop=1;jettySize=auto;html=1;endArrow=none;endFill=0;startArrow=diamond;startFill=0;" edge="1" parent="WIyWlLk6GJQsqaUBKTNV-1" source="kCM1FT8XMwVdJC8RZSaU-88" target="kCM1FT8XMwVdJC8RZSaU-246">
          <mxGeometry relative="1" as="geometry">
            <Array as="points">
              <mxPoint x="820" y="-500" />
              <mxPoint x="1060" y="-500" />
              <mxPoint x="1060" y="-505" />
            </Array>
          </mxGeometry>
        </mxCell>
        <mxCell id="kCM1FT8XMwVdJC8RZSaU-88" value="DbAuthentication" style="swimlane;fontStyle=0;childLayout=stackLayout;horizontal=1;startSize=26;fillColor=none;horizontalStack=0;resizeParent=1;resizeParentMax=0;resizeLast=0;collapsible=1;marginBottom=0;whiteSpace=wrap;html=1;" parent="WIyWlLk6GJQsqaUBKTNV-1" vertex="1" collapsed="1">
          <mxGeometry x="720" y="-480" width="130" height="30" as="geometry">
            <mxRectangle x="720" y="-480" width="1200" height="164" as="alternateBounds" />
          </mxGeometry>
        </mxCell>
        <mxCell id="kCM1FT8XMwVdJC8RZSaU-89" value="- loadAccountByEmailRepository: LoadAccountByEmailRepository" style="text;strokeColor=none;fillColor=none;align=left;verticalAlign=top;spacingLeft=4;spacingRight=4;overflow=hidden;rotatable=0;points=[[0,0.5],[1,0.5]];portConstraint=eastwest;whiteSpace=wrap;html=1;" parent="kCM1FT8XMwVdJC8RZSaU-88" vertex="1">
          <mxGeometry y="26" width="1200" height="26" as="geometry" />
        </mxCell>
        <mxCell id="kCM1FT8XMwVdJC8RZSaU-94" value="- hashComparer: HashComparer" style="text;strokeColor=none;fillColor=none;align=left;verticalAlign=top;spacingLeft=4;spacingRight=4;overflow=hidden;rotatable=0;points=[[0,0.5],[1,0.5]];portConstraint=eastwest;whiteSpace=wrap;html=1;" parent="kCM1FT8XMwVdJC8RZSaU-88" vertex="1">
          <mxGeometry y="52" width="1200" height="26" as="geometry" />
        </mxCell>
        <mxCell id="kCM1FT8XMwVdJC8RZSaU-95" value="- encrypter: Encrypter" style="text;strokeColor=none;fillColor=none;align=left;verticalAlign=top;spacingLeft=4;spacingRight=4;overflow=hidden;rotatable=0;points=[[0,0.5],[1,0.5]];portConstraint=eastwest;whiteSpace=wrap;html=1;" parent="kCM1FT8XMwVdJC8RZSaU-88" vertex="1">
          <mxGeometry y="78" width="1200" height="26" as="geometry" />
        </mxCell>
        <mxCell id="kCM1FT8XMwVdJC8RZSaU-96" value="- updateAccessTokenRepository: UpdateAccessTokenRepository" style="text;strokeColor=none;fillColor=none;align=left;verticalAlign=top;spacingLeft=4;spacingRight=4;overflow=hidden;rotatable=0;points=[[0,0.5],[1,0.5]];portConstraint=eastwest;whiteSpace=wrap;html=1;" parent="kCM1FT8XMwVdJC8RZSaU-88" vertex="1">
          <mxGeometry y="104" width="1200" height="26" as="geometry" />
        </mxCell>
        <mxCell id="kCM1FT8XMwVdJC8RZSaU-274" value="" style="line;strokeWidth=1;fillColor=none;align=left;verticalAlign=middle;spacingTop=-1;spacingLeft=3;spacingRight=3;rotatable=0;labelPosition=right;points=[];portConstraint=eastwest;strokeColor=inherit;" parent="kCM1FT8XMwVdJC8RZSaU-88" vertex="1">
          <mxGeometry y="130" width="1200" height="8" as="geometry" />
        </mxCell>
        <mxCell id="kCM1FT8XMwVdJC8RZSaU-269" value="+ &amp;lt;&amp;lt;constructor&amp;gt;&amp;gt; DbAuthentication (loadAccountByEmailRepository: LoadAccountByEmailRepository, hashComparer: HashComparer, encrypter: Encrypter, updateAccessTokenRepository: UpdateAccessTokenRepository)" style="text;strokeColor=none;fillColor=none;align=left;verticalAlign=top;spacingLeft=4;spacingRight=4;overflow=hidden;rotatable=0;points=[[0,0.5],[1,0.5]];portConstraint=eastwest;whiteSpace=wrap;html=1;" parent="kCM1FT8XMwVdJC8RZSaU-88" vertex="1">
          <mxGeometry y="138" width="1200" height="26" as="geometry" />
        </mxCell>
        <mxCell id="QJs-KclyGJPvYKhieISj-37" style="edgeStyle=orthogonalEdgeStyle;rounded=0;orthogonalLoop=1;jettySize=auto;html=1;dashed=1;" edge="1" parent="WIyWlLk6GJQsqaUBKTNV-1" source="kCM1FT8XMwVdJC8RZSaU-117" target="kCM1FT8XMwVdJC8RZSaU-18">
          <mxGeometry relative="1" as="geometry" />
        </mxCell>
        <mxCell id="kCM1FT8XMwVdJC8RZSaU-117" value="JwtAdapter" style="swimlane;fontStyle=0;childLayout=stackLayout;horizontal=1;startSize=26;fillColor=none;horizontalStack=0;resizeParent=1;resizeParentMax=0;resizeLast=0;collapsible=1;marginBottom=0;whiteSpace=wrap;html=1;" parent="WIyWlLk6GJQsqaUBKTNV-1" vertex="1" collapsed="1">
          <mxGeometry x="765" y="-236" width="100" height="30" as="geometry">
            <mxRectangle x="765" y="-236" width="280" height="78" as="alternateBounds" />
          </mxGeometry>
        </mxCell>
        <mxCell id="kCM1FT8XMwVdJC8RZSaU-118" value="- jwtSecret: string" style="text;strokeColor=none;fillColor=none;align=left;verticalAlign=top;spacingLeft=4;spacingRight=4;overflow=hidden;rotatable=0;points=[[0,0.5],[1,0.5]];portConstraint=eastwest;whiteSpace=wrap;html=1;" parent="kCM1FT8XMwVdJC8RZSaU-117" vertex="1">
          <mxGeometry y="26" width="280" height="26" as="geometry" />
        </mxCell>
        <mxCell id="kCM1FT8XMwVdJC8RZSaU-268" value="+ &amp;lt;&amp;lt;constructor&amp;gt;&amp;gt; JwtAdapter (jwtSecret: string)" style="text;strokeColor=none;fillColor=none;align=left;verticalAlign=top;spacingLeft=4;spacingRight=4;overflow=hidden;rotatable=0;points=[[0,0.5],[1,0.5]];portConstraint=eastwest;whiteSpace=wrap;html=1;" parent="kCM1FT8XMwVdJC8RZSaU-117" vertex="1">
          <mxGeometry y="52" width="280" height="26" as="geometry" />
        </mxCell>
        <mxCell id="QJs-KclyGJPvYKhieISj-56" style="edgeStyle=orthogonalEdgeStyle;rounded=0;orthogonalLoop=1;jettySize=auto;html=1;dashed=1;" edge="1" parent="WIyWlLk6GJQsqaUBKTNV-1" source="kCM1FT8XMwVdJC8RZSaU-126" target="kCM1FT8XMwVdJC8RZSaU-23">
          <mxGeometry relative="1" as="geometry">
            <Array as="points">
              <mxPoint x="510" y="-420" />
              <mxPoint x="510" y="-420" />
            </Array>
          </mxGeometry>
        </mxCell>
        <mxCell id="QJs-KclyGJPvYKhieISj-57" style="edgeStyle=orthogonalEdgeStyle;rounded=0;orthogonalLoop=1;jettySize=auto;html=1;dashed=1;" edge="1" parent="WIyWlLk6GJQsqaUBKTNV-1" source="kCM1FT8XMwVdJC8RZSaU-126" target="kCM1FT8XMwVdJC8RZSaU-20">
          <mxGeometry relative="1" as="geometry" />
        </mxCell>
        <mxCell id="kCM1FT8XMwVdJC8RZSaU-126" value="AccountMongoRepository" style="swimlane;fontStyle=0;align=center;verticalAlign=top;childLayout=stackLayout;horizontal=1;startSize=26;horizontalStack=0;resizeParent=1;resizeParentMax=0;resizeLast=0;collapsible=1;marginBottom=0;whiteSpace=wrap;html=1;" parent="WIyWlLk6GJQsqaUBKTNV-1" vertex="1" collapsed="1">
          <mxGeometry x="350" y="-480" width="180" height="30" as="geometry">
            <mxRectangle x="730" y="1200" width="200" height="34" as="alternateBounds" />
          </mxGeometry>
        </mxCell>
        <mxCell id="kCM1FT8XMwVdJC8RZSaU-140" style="edgeStyle=orthogonalEdgeStyle;rounded=0;orthogonalLoop=1;jettySize=auto;html=1;exitX=0.5;exitY=0;exitDx=0;exitDy=0;entryX=0.226;entryY=0.995;entryDx=0;entryDy=0;entryPerimeter=0;endArrow=classic;endFill=1;dashed=1;" parent="WIyWlLk6GJQsqaUBKTNV-1" source="kCM1FT8XMwVdJC8RZSaU-133" target="kCM1FT8XMwVdJC8RZSaU-28" edge="1">
          <mxGeometry relative="1" as="geometry" />
        </mxCell>
        <mxCell id="kCM1FT8XMwVdJC8RZSaU-133" value="LoggingMongoRepository" style="swimlane;fontStyle=0;align=center;verticalAlign=top;childLayout=stackLayout;horizontal=1;startSize=26;horizontalStack=0;resizeParent=1;resizeParentMax=0;resizeLast=0;collapsible=1;marginBottom=0;whiteSpace=wrap;html=1;" parent="WIyWlLk6GJQsqaUBKTNV-1" vertex="1" collapsed="1">
          <mxGeometry x="450" y="-1160" width="180" height="30" as="geometry">
            <mxRectangle x="-210" y="-280" width="190" height="34" as="alternateBounds" />
          </mxGeometry>
        </mxCell>
        <mxCell id="kCM1FT8XMwVdJC8RZSaU-135" value="" style="line;strokeWidth=1;fillColor=none;align=left;verticalAlign=middle;spacingTop=-1;spacingLeft=3;spacingRight=3;rotatable=0;labelPosition=right;points=[];portConstraint=eastwest;strokeColor=inherit;" parent="kCM1FT8XMwVdJC8RZSaU-133" vertex="1">
          <mxGeometry y="26" width="190" height="8" as="geometry" />
        </mxCell>
        <mxCell id="kCM1FT8XMwVdJC8RZSaU-143" style="edgeStyle=orthogonalEdgeStyle;rounded=0;orthogonalLoop=1;jettySize=auto;html=1;exitX=0.5;exitY=0;exitDx=0;exitDy=0;entryX=0.808;entryY=0.995;entryDx=0;entryDy=0;entryPerimeter=0;endArrow=classic;endFill=1;dashed=1;" parent="WIyWlLk6GJQsqaUBKTNV-1" source="kCM1FT8XMwVdJC8RZSaU-137" target="kCM1FT8XMwVdJC8RZSaU-28" edge="1">
          <mxGeometry relative="1" as="geometry" />
        </mxCell>
        <mxCell id="kCM1FT8XMwVdJC8RZSaU-137" value="LoggingWinstonRepository" style="swimlane;fontStyle=0;align=center;verticalAlign=top;childLayout=stackLayout;horizontal=1;startSize=26;horizontalStack=0;resizeParent=1;resizeParentMax=0;resizeLast=0;collapsible=1;marginBottom=0;whiteSpace=wrap;html=1;" parent="WIyWlLk6GJQsqaUBKTNV-1" vertex="1" collapsed="1">
          <mxGeometry x="750" y="-1160" width="180" height="30" as="geometry">
            <mxRectangle x="750" y="-1160" width="190" height="34" as="alternateBounds" />
          </mxGeometry>
        </mxCell>
        <mxCell id="kCM1FT8XMwVdJC8RZSaU-138" value="" style="line;strokeWidth=1;fillColor=none;align=left;verticalAlign=middle;spacingTop=-1;spacingLeft=3;spacingRight=3;rotatable=0;labelPosition=right;points=[];portConstraint=eastwest;strokeColor=inherit;" parent="kCM1FT8XMwVdJC8RZSaU-137" vertex="1">
          <mxGeometry y="26" width="190" height="8" as="geometry" />
        </mxCell>
        <mxCell id="QJs-KclyGJPvYKhieISj-47" style="edgeStyle=orthogonalEdgeStyle;rounded=0;orthogonalLoop=1;jettySize=auto;html=1;dashed=1;" edge="1" parent="WIyWlLk6GJQsqaUBKTNV-1" source="kCM1FT8XMwVdJC8RZSaU-149" target="kCM1FT8XMwVdJC8RZSaU-31">
          <mxGeometry relative="1" as="geometry" />
        </mxCell>
        <mxCell id="kCM1FT8XMwVdJC8RZSaU-149" value="PasswordValidatorAdapter" style="swimlane;fontStyle=0;align=center;verticalAlign=top;childLayout=stackLayout;horizontal=1;startSize=26;horizontalStack=0;resizeParent=1;resizeParentMax=0;resizeLast=0;collapsible=1;marginBottom=0;whiteSpace=wrap;html=1;" parent="WIyWlLk6GJQsqaUBKTNV-1" vertex="1" collapsed="1">
          <mxGeometry x="-215" y="-960" width="180" height="30" as="geometry">
            <mxRectangle x="957" y="-426" width="193" height="34" as="alternateBounds" />
          </mxGeometry>
        </mxCell>
        <mxCell id="kCM1FT8XMwVdJC8RZSaU-150" value="" style="line;strokeWidth=1;fillColor=none;align=left;verticalAlign=middle;spacingTop=-1;spacingLeft=3;spacingRight=3;rotatable=0;labelPosition=right;points=[];portConstraint=eastwest;strokeColor=inherit;" parent="kCM1FT8XMwVdJC8RZSaU-149" vertex="1">
          <mxGeometry y="26" width="193" height="8" as="geometry" />
        </mxCell>
        <mxCell id="QJs-KclyGJPvYKhieISj-21" style="edgeStyle=orthogonalEdgeStyle;rounded=0;orthogonalLoop=1;jettySize=auto;html=1;dashed=1;" edge="1" parent="WIyWlLk6GJQsqaUBKTNV-1" source="kCM1FT8XMwVdJC8RZSaU-163" target="kCM1FT8XMwVdJC8RZSaU-35">
          <mxGeometry relative="1" as="geometry" />
        </mxCell>
        <mxCell id="QJs-KclyGJPvYKhieISj-52" style="edgeStyle=orthogonalEdgeStyle;rounded=0;orthogonalLoop=1;jettySize=auto;html=1;entryX=0.998;entryY=0.45;entryDx=0;entryDy=0;entryPerimeter=0;endArrow=none;endFill=0;" edge="1" parent="WIyWlLk6GJQsqaUBKTNV-1" source="kCM1FT8XMwVdJC8RZSaU-163" target="kCM1FT8XMwVdJC8RZSaU-176">
          <mxGeometry relative="1" as="geometry">
            <Array as="points">
              <mxPoint x="40" y="-747" />
              <mxPoint x="-20" y="-747" />
            </Array>
          </mxGeometry>
        </mxCell>
        <mxCell id="QJs-KclyGJPvYKhieISj-53" style="edgeStyle=orthogonalEdgeStyle;rounded=0;orthogonalLoop=1;jettySize=auto;html=1;entryX=0.998;entryY=0.478;entryDx=0;entryDy=0;entryPerimeter=0;endArrow=none;endFill=0;" edge="1" parent="WIyWlLk6GJQsqaUBKTNV-1" source="kCM1FT8XMwVdJC8RZSaU-163" target="kCM1FT8XMwVdJC8RZSaU-184">
          <mxGeometry relative="1" as="geometry">
            <Array as="points">
              <mxPoint x="85" y="-796" />
            </Array>
          </mxGeometry>
        </mxCell>
        <mxCell id="QJs-KclyGJPvYKhieISj-54" style="edgeStyle=orthogonalEdgeStyle;rounded=0;orthogonalLoop=1;jettySize=auto;html=1;entryX=0.998;entryY=0.394;entryDx=0;entryDy=0;entryPerimeter=0;endArrow=none;endFill=0;" edge="1" parent="WIyWlLk6GJQsqaUBKTNV-1" source="kCM1FT8XMwVdJC8RZSaU-163" target="kCM1FT8XMwVdJC8RZSaU-180">
          <mxGeometry relative="1" as="geometry">
            <Array as="points">
              <mxPoint x="140" y="-858" />
            </Array>
          </mxGeometry>
        </mxCell>
        <mxCell id="QJs-KclyGJPvYKhieISj-55" style="edgeStyle=orthogonalEdgeStyle;rounded=0;orthogonalLoop=1;jettySize=auto;html=1;endArrow=none;endFill=0;" edge="1" parent="WIyWlLk6GJQsqaUBKTNV-1" source="kCM1FT8XMwVdJC8RZSaU-163" target="kCM1FT8XMwVdJC8RZSaU-172">
          <mxGeometry relative="1" as="geometry">
            <Array as="points">
              <mxPoint x="40" y="-595" />
            </Array>
          </mxGeometry>
        </mxCell>
        <mxCell id="kCM1FT8XMwVdJC8RZSaU-163" value="ValidationComposite" style="swimlane;fontStyle=0;childLayout=stackLayout;horizontal=1;startSize=26;fillColor=none;horizontalStack=0;resizeParent=1;resizeParentMax=0;resizeLast=0;collapsible=1;marginBottom=0;whiteSpace=wrap;html=1;" parent="WIyWlLk6GJQsqaUBKTNV-1" vertex="1" collapsed="1">
          <mxGeometry x="10" y="-700" width="150" height="30" as="geometry">
            <mxRectangle x="60" y="-730" width="410" height="78" as="alternateBounds" />
          </mxGeometry>
        </mxCell>
        <mxCell id="kCM1FT8XMwVdJC8RZSaU-164" value="- validations: Array&amp;lt;Validation&amp;gt;" style="text;strokeColor=none;fillColor=none;align=left;verticalAlign=top;spacingLeft=4;spacingRight=4;overflow=hidden;rotatable=0;points=[[0,0.5],[1,0.5]];portConstraint=eastwest;whiteSpace=wrap;html=1;" parent="kCM1FT8XMwVdJC8RZSaU-163" vertex="1">
          <mxGeometry y="26" width="410" height="26" as="geometry" />
        </mxCell>
        <mxCell id="kCM1FT8XMwVdJC8RZSaU-257" value="+ &amp;lt;&amp;lt;constructor&amp;gt;&amp;gt; ValidatorComposite (validations: Array&amp;lt;Validation&amp;gt;)" style="text;strokeColor=none;fillColor=none;align=left;verticalAlign=top;spacingLeft=4;spacingRight=4;overflow=hidden;rotatable=0;points=[[0,0.5],[1,0.5]];portConstraint=eastwest;whiteSpace=wrap;html=1;" parent="kCM1FT8XMwVdJC8RZSaU-163" vertex="1">
          <mxGeometry y="52" width="410" height="26" as="geometry" />
        </mxCell>
        <mxCell id="QJs-KclyGJPvYKhieISj-44" style="edgeStyle=orthogonalEdgeStyle;rounded=0;orthogonalLoop=1;jettySize=auto;html=1;dashed=1;" edge="1" parent="WIyWlLk6GJQsqaUBKTNV-1" source="kCM1FT8XMwVdJC8RZSaU-172" target="kCM1FT8XMwVdJC8RZSaU-35">
          <mxGeometry relative="1" as="geometry" />
        </mxCell>
        <mxCell id="QJs-KclyGJPvYKhieISj-45" style="edgeStyle=orthogonalEdgeStyle;rounded=0;orthogonalLoop=1;jettySize=auto;html=1;entryX=0.544;entryY=0;entryDx=0;entryDy=0;entryPerimeter=0;endArrow=none;endFill=0;startArrow=diamond;startFill=0;" edge="1" parent="WIyWlLk6GJQsqaUBKTNV-1" source="kCM1FT8XMwVdJC8RZSaU-172" target="kCM1FT8XMwVdJC8RZSaU-144">
          <mxGeometry relative="1" as="geometry">
            <Array as="points">
              <mxPoint x="-97" y="-520" />
            </Array>
          </mxGeometry>
        </mxCell>
        <mxCell id="kCM1FT8XMwVdJC8RZSaU-172" value="EmailValidation" style="swimlane;fontStyle=0;align=center;verticalAlign=top;childLayout=stackLayout;horizontal=1;startSize=26;horizontalStack=0;resizeParent=1;resizeParentMax=0;resizeLast=0;collapsible=1;marginBottom=0;whiteSpace=wrap;html=1;" parent="WIyWlLk6GJQsqaUBKTNV-1" vertex="1" collapsed="1">
          <mxGeometry x="-157" y="-610" width="120" height="30" as="geometry">
            <mxRectangle x="-93" y="-610" width="460" height="104" as="alternateBounds" />
          </mxGeometry>
        </mxCell>
        <mxCell id="kCM1FT8XMwVdJC8RZSaU-173" value="- fieldName: string" style="text;strokeColor=none;fillColor=none;align=left;verticalAlign=top;spacingLeft=4;spacingRight=4;overflow=hidden;rotatable=0;points=[[0,0.5],[1,0.5]];portConstraint=eastwest;whiteSpace=wrap;html=1;" parent="kCM1FT8XMwVdJC8RZSaU-172" vertex="1">
          <mxGeometry y="26" width="460" height="26" as="geometry" />
        </mxCell>
        <mxCell id="kCM1FT8XMwVdJC8RZSaU-175" value="- emailValidator: EmailValidator" style="text;strokeColor=none;fillColor=none;align=left;verticalAlign=top;spacingLeft=4;spacingRight=4;overflow=hidden;rotatable=0;points=[[0,0.5],[1,0.5]];portConstraint=eastwest;whiteSpace=wrap;html=1;" parent="kCM1FT8XMwVdJC8RZSaU-172" vertex="1">
          <mxGeometry y="52" width="460" height="26" as="geometry" />
        </mxCell>
        <mxCell id="kCM1FT8XMwVdJC8RZSaU-267" value="+ &amp;lt;&amp;lt;constructor&amp;gt;&amp;gt; EmaiValidation (fieldName: string, emailValidator: EmailValidator)" style="text;strokeColor=none;fillColor=none;align=left;verticalAlign=top;spacingLeft=4;spacingRight=4;overflow=hidden;rotatable=0;points=[[0,0.5],[1,0.5]];portConstraint=eastwest;whiteSpace=wrap;html=1;" parent="kCM1FT8XMwVdJC8RZSaU-172" vertex="1">
          <mxGeometry y="78" width="460" height="26" as="geometry" />
        </mxCell>
        <mxCell id="QJs-KclyGJPvYKhieISj-50" style="edgeStyle=orthogonalEdgeStyle;rounded=0;orthogonalLoop=1;jettySize=auto;html=1;entryX=0.853;entryY=-0.037;entryDx=0;entryDy=0;entryPerimeter=0;dashed=1;" edge="1" parent="WIyWlLk6GJQsqaUBKTNV-1" source="kCM1FT8XMwVdJC8RZSaU-176" target="kCM1FT8XMwVdJC8RZSaU-35">
          <mxGeometry relative="1" as="geometry" />
        </mxCell>
        <mxCell id="kCM1FT8XMwVdJC8RZSaU-176" value="FieldsComparisonValidation" style="swimlane;fontStyle=0;align=center;verticalAlign=top;childLayout=stackLayout;horizontal=1;startSize=26;horizontalStack=0;resizeParent=1;resizeParentMax=0;resizeLast=0;collapsible=1;marginBottom=0;whiteSpace=wrap;html=1;" parent="WIyWlLk6GJQsqaUBKTNV-1" vertex="1" collapsed="1">
          <mxGeometry x="-240" y="-760" width="190" height="30" as="geometry">
            <mxRectangle x="-470" y="-730" width="484" height="112" as="alternateBounds" />
          </mxGeometry>
        </mxCell>
        <mxCell id="kCM1FT8XMwVdJC8RZSaU-177" value="- fieldName: string" style="text;strokeColor=none;fillColor=none;align=left;verticalAlign=top;spacingLeft=4;spacingRight=4;overflow=hidden;rotatable=0;points=[[0,0.5],[1,0.5]];portConstraint=eastwest;whiteSpace=wrap;html=1;" parent="kCM1FT8XMwVdJC8RZSaU-176" vertex="1">
          <mxGeometry y="26" width="484" height="26" as="geometry" />
        </mxCell>
        <mxCell id="kCM1FT8XMwVdJC8RZSaU-179" value="- fieldNameToCompare: string" style="text;strokeColor=none;fillColor=none;align=left;verticalAlign=top;spacingLeft=4;spacingRight=4;overflow=hidden;rotatable=0;points=[[0,0.5],[1,0.5]];portConstraint=eastwest;whiteSpace=wrap;html=1;" parent="kCM1FT8XMwVdJC8RZSaU-176" vertex="1">
          <mxGeometry y="52" width="484" height="26" as="geometry" />
        </mxCell>
        <mxCell id="kCM1FT8XMwVdJC8RZSaU-266" value="" style="line;strokeWidth=1;fillColor=none;align=left;verticalAlign=middle;spacingTop=-1;spacingLeft=3;spacingRight=3;rotatable=0;labelPosition=right;points=[];portConstraint=eastwest;strokeColor=inherit;" parent="kCM1FT8XMwVdJC8RZSaU-176" vertex="1">
          <mxGeometry y="78" width="484" height="8" as="geometry" />
        </mxCell>
        <mxCell id="kCM1FT8XMwVdJC8RZSaU-264" value="+ &amp;lt;&amp;lt;constructor&amp;gt;&amp;gt; FieldsComparisonValidation (fieldName: string, fieldNameToCompare)" style="text;strokeColor=none;fillColor=none;align=left;verticalAlign=top;spacingLeft=4;spacingRight=4;overflow=hidden;rotatable=0;points=[[0,0.5],[1,0.5]];portConstraint=eastwest;whiteSpace=wrap;html=1;" parent="kCM1FT8XMwVdJC8RZSaU-176" vertex="1">
          <mxGeometry y="86" width="484" height="26" as="geometry" />
        </mxCell>
        <mxCell id="QJs-KclyGJPvYKhieISj-29" style="edgeStyle=orthogonalEdgeStyle;rounded=0;orthogonalLoop=1;jettySize=auto;html=1;endArrow=none;endFill=0;startArrow=diamond;startFill=0;" edge="1" parent="WIyWlLk6GJQsqaUBKTNV-1" source="kCM1FT8XMwVdJC8RZSaU-180" target="kCM1FT8XMwVdJC8RZSaU-149">
          <mxGeometry relative="1" as="geometry" />
        </mxCell>
        <mxCell id="QJs-KclyGJPvYKhieISj-49" style="edgeStyle=orthogonalEdgeStyle;rounded=0;orthogonalLoop=1;jettySize=auto;html=1;dashed=1;entryX=0.005;entryY=0.567;entryDx=0;entryDy=0;entryPerimeter=0;" edge="1" parent="WIyWlLk6GJQsqaUBKTNV-1" source="kCM1FT8XMwVdJC8RZSaU-180" target="kCM1FT8XMwVdJC8RZSaU-35">
          <mxGeometry relative="1" as="geometry" />
        </mxCell>
        <mxCell id="kCM1FT8XMwVdJC8RZSaU-180" value="PasswordValidation" style="swimlane;fontStyle=0;align=center;verticalAlign=top;childLayout=stackLayout;horizontal=1;startSize=26;horizontalStack=0;resizeParent=1;resizeParentMax=0;resizeLast=0;collapsible=1;marginBottom=0;whiteSpace=wrap;html=1;" parent="WIyWlLk6GJQsqaUBKTNV-1" vertex="1" collapsed="1">
          <mxGeometry x="-200" y="-870" width="150" height="30" as="geometry">
            <mxRectangle x="-330" y="-810" width="540" height="112" as="alternateBounds" />
          </mxGeometry>
        </mxCell>
        <mxCell id="kCM1FT8XMwVdJC8RZSaU-181" value="- fieldName: string" style="text;strokeColor=none;fillColor=none;align=left;verticalAlign=top;spacingLeft=4;spacingRight=4;overflow=hidden;rotatable=0;points=[[0,0.5],[1,0.5]];portConstraint=eastwest;whiteSpace=wrap;html=1;" parent="kCM1FT8XMwVdJC8RZSaU-180" vertex="1">
          <mxGeometry y="26" width="540" height="26" as="geometry" />
        </mxCell>
        <mxCell id="kCM1FT8XMwVdJC8RZSaU-183" value="- passwordValidator: PasswordValidator" style="text;strokeColor=none;fillColor=none;align=left;verticalAlign=top;spacingLeft=4;spacingRight=4;overflow=hidden;rotatable=0;points=[[0,0.5],[1,0.5]];portConstraint=eastwest;whiteSpace=wrap;html=1;" parent="kCM1FT8XMwVdJC8RZSaU-180" vertex="1">
          <mxGeometry y="52" width="540" height="26" as="geometry" />
        </mxCell>
        <mxCell id="kCM1FT8XMwVdJC8RZSaU-263" value="" style="line;strokeWidth=1;fillColor=none;align=left;verticalAlign=middle;spacingTop=-1;spacingLeft=3;spacingRight=3;rotatable=0;labelPosition=right;points=[];portConstraint=eastwest;strokeColor=inherit;" parent="kCM1FT8XMwVdJC8RZSaU-180" vertex="1">
          <mxGeometry y="78" width="540" height="8" as="geometry" />
        </mxCell>
        <mxCell id="kCM1FT8XMwVdJC8RZSaU-259" value="+ &amp;lt;&amp;lt;constructor&amp;gt;&amp;gt; PasswordValidation (fieldName: string, passwordValidator: PasswordValidator)" style="text;strokeColor=none;fillColor=none;align=left;verticalAlign=top;spacingLeft=4;spacingRight=4;overflow=hidden;rotatable=0;points=[[0,0.5],[1,0.5]];portConstraint=eastwest;whiteSpace=wrap;html=1;" parent="kCM1FT8XMwVdJC8RZSaU-180" vertex="1">
          <mxGeometry y="86" width="540" height="26" as="geometry" />
        </mxCell>
        <mxCell id="QJs-KclyGJPvYKhieISj-51" style="edgeStyle=orthogonalEdgeStyle;rounded=0;orthogonalLoop=1;jettySize=auto;html=1;dashed=1;" edge="1" parent="WIyWlLk6GJQsqaUBKTNV-1" source="kCM1FT8XMwVdJC8RZSaU-184" target="kCM1FT8XMwVdJC8RZSaU-35">
          <mxGeometry relative="1" as="geometry" />
        </mxCell>
        <mxCell id="kCM1FT8XMwVdJC8RZSaU-184" value="RequiredFieldsValidation" style="swimlane;fontStyle=0;align=center;verticalAlign=top;childLayout=stackLayout;horizontal=1;startSize=26;horizontalStack=0;resizeParent=1;resizeParentMax=0;resizeLast=0;collapsible=1;marginBottom=0;whiteSpace=wrap;html=1;" parent="WIyWlLk6GJQsqaUBKTNV-1" vertex="1" collapsed="1">
          <mxGeometry x="-220" y="-810" width="170" height="30" as="geometry">
            <mxRectangle x="190" y="-890" width="350" height="86" as="alternateBounds" />
          </mxGeometry>
        </mxCell>
        <mxCell id="kCM1FT8XMwVdJC8RZSaU-185" value="- fieldName: string&amp;nbsp;" style="text;strokeColor=none;fillColor=none;align=left;verticalAlign=top;spacingLeft=4;spacingRight=4;overflow=hidden;rotatable=0;points=[[0,0.5],[1,0.5]];portConstraint=eastwest;whiteSpace=wrap;html=1;" parent="kCM1FT8XMwVdJC8RZSaU-184" vertex="1">
          <mxGeometry y="26" width="350" height="26" as="geometry" />
        </mxCell>
        <mxCell id="kCM1FT8XMwVdJC8RZSaU-186" value="" style="line;strokeWidth=1;fillColor=none;align=left;verticalAlign=middle;spacingTop=-1;spacingLeft=3;spacingRight=3;rotatable=0;labelPosition=right;points=[];portConstraint=eastwest;strokeColor=inherit;" parent="kCM1FT8XMwVdJC8RZSaU-184" vertex="1">
          <mxGeometry y="52" width="350" height="8" as="geometry" />
        </mxCell>
        <mxCell id="kCM1FT8XMwVdJC8RZSaU-187" value="+ &amp;lt;&amp;lt;constructor&amp;gt;&amp;gt; RequiredFieldValidation (fieldName: string)" style="text;strokeColor=none;fillColor=none;align=left;verticalAlign=top;spacingLeft=4;spacingRight=4;overflow=hidden;rotatable=0;points=[[0,0.5],[1,0.5]];portConstraint=eastwest;whiteSpace=wrap;html=1;" parent="kCM1FT8XMwVdJC8RZSaU-184" vertex="1">
          <mxGeometry y="60" width="350" height="26" as="geometry" />
        </mxCell>
        <mxCell id="QJs-KclyGJPvYKhieISj-0" style="edgeStyle=orthogonalEdgeStyle;rounded=0;orthogonalLoop=1;jettySize=auto;html=1;" edge="1" parent="WIyWlLk6GJQsqaUBKTNV-1" source="kCM1FT8XMwVdJC8RZSaU-222" target="kCM1FT8XMwVdJC8RZSaU-33">
          <mxGeometry relative="1" as="geometry">
            <mxPoint x="620" y="-785" as="sourcePoint" />
          </mxGeometry>
        </mxCell>
        <mxCell id="QJs-KclyGJPvYKhieISj-26" style="edgeStyle=orthogonalEdgeStyle;rounded=0;orthogonalLoop=1;jettySize=auto;html=1;entryX=0.215;entryY=0.067;entryDx=0;entryDy=0;entryPerimeter=0;endArrow=none;endFill=0;startArrow=diamond;startFill=0;" edge="1" parent="WIyWlLk6GJQsqaUBKTNV-1" source="kCM1FT8XMwVdJC8RZSaU-222" target="kCM1FT8XMwVdJC8RZSaU-226">
          <mxGeometry relative="1" as="geometry">
            <Array as="points">
              <mxPoint x="648" y="-995" />
            </Array>
          </mxGeometry>
        </mxCell>
        <mxCell id="QJs-KclyGJPvYKhieISj-27" style="edgeStyle=orthogonalEdgeStyle;rounded=0;orthogonalLoop=1;jettySize=auto;html=1;endArrow=none;endFill=0;startArrow=diamond;startFill=0;" edge="1" parent="WIyWlLk6GJQsqaUBKTNV-1" source="kCM1FT8XMwVdJC8RZSaU-222" target="kCM1FT8XMwVdJC8RZSaU-230">
          <mxGeometry relative="1" as="geometry">
            <Array as="points">
              <mxPoint x="1270" y="-995" />
              <mxPoint x="1270" y="-620" />
              <mxPoint x="870" y="-620" />
            </Array>
          </mxGeometry>
        </mxCell>
        <mxCell id="QJs-KclyGJPvYKhieISj-28" style="edgeStyle=orthogonalEdgeStyle;rounded=0;orthogonalLoop=1;jettySize=auto;html=1;entryX=0.831;entryY=-0.033;entryDx=0;entryDy=0;entryPerimeter=0;endArrow=none;endFill=0;startArrow=diamond;startFill=0;" edge="1" parent="WIyWlLk6GJQsqaUBKTNV-1" source="kCM1FT8XMwVdJC8RZSaU-222" target="kCM1FT8XMwVdJC8RZSaU-234">
          <mxGeometry relative="1" as="geometry">
            <Array as="points">
              <mxPoint x="900" y="-842" />
              <mxPoint x="1063" y="-842" />
            </Array>
          </mxGeometry>
        </mxCell>
        <mxCell id="QJs-KclyGJPvYKhieISj-32" style="edgeStyle=orthogonalEdgeStyle;rounded=0;orthogonalLoop=1;jettySize=auto;html=1;endArrow=none;endFill=0;startArrow=diamond;startFill=0;" edge="1" parent="WIyWlLk6GJQsqaUBKTNV-1" source="kCM1FT8XMwVdJC8RZSaU-222" target="kCM1FT8XMwVdJC8RZSaU-137">
          <mxGeometry relative="1" as="geometry" />
        </mxCell>
        <mxCell id="kCM1FT8XMwVdJC8RZSaU-222" value="&lt;span style=&quot;font-weight: normal;&quot;&gt;LoggingControllerDecorator&lt;/span&gt;" style="swimlane;fontStyle=1;align=center;verticalAlign=top;childLayout=stackLayout;horizontal=1;startSize=26;horizontalStack=0;resizeParent=1;resizeParentMax=0;resizeLast=0;collapsible=1;marginBottom=0;whiteSpace=wrap;html=1;" parent="WIyWlLk6GJQsqaUBKTNV-1" vertex="1" collapsed="1">
          <mxGeometry x="745" y="-1010" width="190" height="30" as="geometry">
            <mxRectangle x="745" y="-1010" width="600" height="112" as="alternateBounds" />
          </mxGeometry>
        </mxCell>
        <mxCell id="kCM1FT8XMwVdJC8RZSaU-223" value="- controller: Controller" style="text;strokeColor=none;fillColor=none;align=left;verticalAlign=top;spacingLeft=4;spacingRight=4;overflow=hidden;rotatable=0;points=[[0,0.5],[1,0.5]];portConstraint=eastwest;whiteSpace=wrap;html=1;" parent="kCM1FT8XMwVdJC8RZSaU-222" vertex="1">
          <mxGeometry y="26" width="600" height="26" as="geometry" />
        </mxCell>
        <mxCell id="kCM1FT8XMwVdJC8RZSaU-225" value="- loggingRepository: LoggingRepository" style="text;strokeColor=none;fillColor=none;align=left;verticalAlign=top;spacingLeft=4;spacingRight=4;overflow=hidden;rotatable=0;points=[[0,0.5],[1,0.5]];portConstraint=eastwest;whiteSpace=wrap;html=1;" parent="kCM1FT8XMwVdJC8RZSaU-222" vertex="1">
          <mxGeometry y="52" width="600" height="26" as="geometry" />
        </mxCell>
        <mxCell id="kCM1FT8XMwVdJC8RZSaU-273" value="" style="line;strokeWidth=1;fillColor=none;align=left;verticalAlign=middle;spacingTop=-1;spacingLeft=3;spacingRight=3;rotatable=0;labelPosition=right;points=[];portConstraint=eastwest;strokeColor=inherit;" parent="kCM1FT8XMwVdJC8RZSaU-222" vertex="1">
          <mxGeometry y="78" width="600" height="8" as="geometry" />
        </mxCell>
        <mxCell id="kCM1FT8XMwVdJC8RZSaU-271" value="+ &amp;lt;&amp;lt;constructor&amp;gt;&amp;gt; LoggingControllerDecorator (controller: Controller, loggingRepository: LoggingRepository)" style="text;strokeColor=none;fillColor=none;align=left;verticalAlign=top;spacingLeft=4;spacingRight=4;overflow=hidden;rotatable=0;points=[[0,0.5],[1,0.5]];portConstraint=eastwest;whiteSpace=wrap;html=1;" parent="kCM1FT8XMwVdJC8RZSaU-222" vertex="1">
          <mxGeometry y="86" width="600" height="26" as="geometry" />
        </mxCell>
        <mxCell id="QJs-KclyGJPvYKhieISj-1" style="edgeStyle=orthogonalEdgeStyle;rounded=0;orthogonalLoop=1;jettySize=auto;html=1;entryX=0.091;entryY=1;entryDx=0;entryDy=0;entryPerimeter=0;exitX=0.546;exitY=-0.033;exitDx=0;exitDy=0;exitPerimeter=0;" edge="1" parent="WIyWlLk6GJQsqaUBKTNV-1" source="kCM1FT8XMwVdJC8RZSaU-226" target="kCM1FT8XMwVdJC8RZSaU-33">
          <mxGeometry relative="1" as="geometry" />
        </mxCell>
        <mxCell id="QJs-KclyGJPvYKhieISj-15" style="edgeStyle=orthogonalEdgeStyle;rounded=0;orthogonalLoop=1;jettySize=auto;html=1;entryX=1;entryY=0.367;entryDx=0;entryDy=0;entryPerimeter=0;endArrow=none;endFill=0;startArrow=diamond;startFill=0;" edge="1" parent="WIyWlLk6GJQsqaUBKTNV-1" source="kCM1FT8XMwVdJC8RZSaU-226" target="kCM1FT8XMwVdJC8RZSaU-163">
          <mxGeometry relative="1" as="geometry" />
        </mxCell>
        <mxCell id="QJs-KclyGJPvYKhieISj-16" style="edgeStyle=orthogonalEdgeStyle;rounded=0;orthogonalLoop=1;jettySize=auto;html=1;endArrow=none;endFill=0;startArrow=diamond;startFill=0;" edge="1" parent="WIyWlLk6GJQsqaUBKTNV-1" source="kCM1FT8XMwVdJC8RZSaU-226" target="kCM1FT8XMwVdJC8RZSaU-75">
          <mxGeometry relative="1" as="geometry">
            <Array as="points">
              <mxPoint x="650" y="-570" />
            </Array>
          </mxGeometry>
        </mxCell>
        <mxCell id="kCM1FT8XMwVdJC8RZSaU-226" value="SignUpController" style="swimlane;fontStyle=0;align=center;verticalAlign=top;childLayout=stackLayout;horizontal=1;startSize=26;horizontalStack=0;resizeParent=1;resizeParentMax=0;resizeLast=0;collapsible=1;marginBottom=0;whiteSpace=wrap;html=1;" parent="WIyWlLk6GJQsqaUBKTNV-1" vertex="1" collapsed="1">
          <mxGeometry x="620" y="-705" width="130" height="30" as="geometry">
            <mxRectangle x="620" y="-705" width="470" height="112" as="alternateBounds" />
          </mxGeometry>
        </mxCell>
        <mxCell id="kCM1FT8XMwVdJC8RZSaU-227" value="- addAccount: AddAccount" style="text;strokeColor=none;fillColor=none;align=left;verticalAlign=top;spacingLeft=4;spacingRight=4;overflow=hidden;rotatable=0;points=[[0,0.5],[1,0.5]];portConstraint=eastwest;whiteSpace=wrap;html=1;" parent="kCM1FT8XMwVdJC8RZSaU-226" vertex="1">
          <mxGeometry y="26" width="470" height="26" as="geometry" />
        </mxCell>
        <mxCell id="kCM1FT8XMwVdJC8RZSaU-229" value="- validator: Validation" style="text;strokeColor=none;fillColor=none;align=left;verticalAlign=top;spacingLeft=4;spacingRight=4;overflow=hidden;rotatable=0;points=[[0,0.5],[1,0.5]];portConstraint=eastwest;whiteSpace=wrap;html=1;" parent="kCM1FT8XMwVdJC8RZSaU-226" vertex="1">
          <mxGeometry y="52" width="470" height="26" as="geometry" />
        </mxCell>
        <mxCell id="kCM1FT8XMwVdJC8RZSaU-275" value="" style="line;strokeWidth=1;fillColor=none;align=left;verticalAlign=middle;spacingTop=-1;spacingLeft=3;spacingRight=3;rotatable=0;labelPosition=right;points=[];portConstraint=eastwest;strokeColor=inherit;" parent="kCM1FT8XMwVdJC8RZSaU-226" vertex="1">
          <mxGeometry y="78" width="470" height="8" as="geometry" />
        </mxCell>
        <mxCell id="kCM1FT8XMwVdJC8RZSaU-272" value="+ &amp;lt;&amp;lt;constructor&amp;gt;&amp;gt; SignUpController (addAccount: AddAccount, validator: Validation)" style="text;strokeColor=none;fillColor=none;align=left;verticalAlign=top;spacingLeft=4;spacingRight=4;overflow=hidden;rotatable=0;points=[[0,0.5],[1,0.5]];portConstraint=eastwest;whiteSpace=wrap;html=1;" parent="kCM1FT8XMwVdJC8RZSaU-226" vertex="1">
          <mxGeometry y="86" width="470" height="26" as="geometry" />
        </mxCell>
        <mxCell id="QJs-KclyGJPvYKhieISj-2" style="edgeStyle=orthogonalEdgeStyle;rounded=0;orthogonalLoop=1;jettySize=auto;html=1;entryX=0.455;entryY=1.075;entryDx=0;entryDy=0;entryPerimeter=0;" edge="1" parent="WIyWlLk6GJQsqaUBKTNV-1" source="kCM1FT8XMwVdJC8RZSaU-230" target="kCM1FT8XMwVdJC8RZSaU-33">
          <mxGeometry relative="1" as="geometry" />
        </mxCell>
        <mxCell id="QJs-KclyGJPvYKhieISj-19" style="edgeStyle=orthogonalEdgeStyle;rounded=0;orthogonalLoop=1;jettySize=auto;html=1;endArrow=none;endFill=0;startArrow=diamond;startFill=0;" edge="1" parent="WIyWlLk6GJQsqaUBKTNV-1" source="kCM1FT8XMwVdJC8RZSaU-230" target="kCM1FT8XMwVdJC8RZSaU-88">
          <mxGeometry relative="1" as="geometry">
            <mxPoint x="820" y="-670" as="sourcePoint" />
          </mxGeometry>
        </mxCell>
        <mxCell id="QJs-KclyGJPvYKhieISj-20" style="edgeStyle=orthogonalEdgeStyle;rounded=0;orthogonalLoop=1;jettySize=auto;html=1;endArrow=none;endFill=0;startArrow=diamond;startFill=0;" edge="1" parent="WIyWlLk6GJQsqaUBKTNV-1" source="kCM1FT8XMwVdJC8RZSaU-230" target="kCM1FT8XMwVdJC8RZSaU-163">
          <mxGeometry relative="1" as="geometry">
            <Array as="points">
              <mxPoint x="820" y="-630" />
              <mxPoint x="80" y="-630" />
            </Array>
          </mxGeometry>
        </mxCell>
        <mxCell id="kCM1FT8XMwVdJC8RZSaU-230" value="LoginController" style="swimlane;fontStyle=0;align=center;verticalAlign=top;childLayout=stackLayout;horizontal=1;startSize=25;horizontalStack=0;resizeParent=1;resizeParentMax=0;resizeLast=0;collapsible=1;marginBottom=0;whiteSpace=wrap;html=1;" parent="WIyWlLk6GJQsqaUBKTNV-1" vertex="1" collapsed="1">
          <mxGeometry x="780" y="-705" width="120" height="30" as="geometry">
            <mxRectangle x="780" y="-705" width="480" height="103" as="alternateBounds" />
          </mxGeometry>
        </mxCell>
        <mxCell id="kCM1FT8XMwVdJC8RZSaU-231" value="- authentication: Authentication" style="text;strokeColor=none;fillColor=none;align=left;verticalAlign=top;spacingLeft=4;spacingRight=4;overflow=hidden;rotatable=0;points=[[0,0.5],[1,0.5]];portConstraint=eastwest;whiteSpace=wrap;html=1;" parent="kCM1FT8XMwVdJC8RZSaU-230" vertex="1">
          <mxGeometry y="25" width="480" height="26" as="geometry" />
        </mxCell>
        <mxCell id="kCM1FT8XMwVdJC8RZSaU-233" value="- validation: Validation" style="text;strokeColor=none;fillColor=none;align=left;verticalAlign=top;spacingLeft=4;spacingRight=4;overflow=hidden;rotatable=0;points=[[0,0.5],[1,0.5]];portConstraint=eastwest;whiteSpace=wrap;html=1;" parent="kCM1FT8XMwVdJC8RZSaU-230" vertex="1">
          <mxGeometry y="51" width="480" height="26" as="geometry" />
        </mxCell>
        <mxCell id="kCM1FT8XMwVdJC8RZSaU-276" value="+ &amp;lt;&amp;lt;constructor&amp;gt;&amp;gt; LoginController (authentication: Authentication, validation: Validation)" style="text;strokeColor=none;fillColor=none;align=left;verticalAlign=top;spacingLeft=4;spacingRight=4;overflow=hidden;rotatable=0;points=[[0,0.5],[1,0.5]];portConstraint=eastwest;whiteSpace=wrap;html=1;" parent="kCM1FT8XMwVdJC8RZSaU-230" vertex="1">
          <mxGeometry y="77" width="480" height="26" as="geometry" />
        </mxCell>
        <mxCell id="QJs-KclyGJPvYKhieISj-3" style="edgeStyle=orthogonalEdgeStyle;rounded=0;orthogonalLoop=1;jettySize=auto;html=1;entryX=0.873;entryY=1.025;entryDx=0;entryDy=0;entryPerimeter=0;exitX=0.519;exitY=0;exitDx=0;exitDy=0;exitPerimeter=0;" edge="1" parent="WIyWlLk6GJQsqaUBKTNV-1" source="kCM1FT8XMwVdJC8RZSaU-234" target="kCM1FT8XMwVdJC8RZSaU-33">
          <mxGeometry relative="1" as="geometry" />
        </mxCell>
        <mxCell id="kCM1FT8XMwVdJC8RZSaU-234" value="HealthCheckController" style="swimlane;fontStyle=0;align=center;verticalAlign=top;childLayout=stackLayout;horizontal=1;startSize=26;horizontalStack=0;resizeParent=1;resizeParentMax=0;resizeLast=0;collapsible=1;marginBottom=0;whiteSpace=wrap;html=1;" parent="WIyWlLk6GJQsqaUBKTNV-1" vertex="1" collapsed="1">
          <mxGeometry x="930" y="-705" width="160" height="30" as="geometry">
            <mxRectangle x="930" y="-705" width="160" height="34" as="alternateBounds" />
          </mxGeometry>
        </mxCell>
        <mxCell id="QJs-KclyGJPvYKhieISj-10" style="edgeStyle=orthogonalEdgeStyle;rounded=0;orthogonalLoop=1;jettySize=auto;html=1;dashed=1;" edge="1" parent="WIyWlLk6GJQsqaUBKTNV-1" source="kCM1FT8XMwVdJC8RZSaU-246" target="kCM1FT8XMwVdJC8RZSaU-13">
          <mxGeometry relative="1" as="geometry" />
        </mxCell>
        <mxCell id="QJs-KclyGJPvYKhieISj-12" style="edgeStyle=orthogonalEdgeStyle;rounded=0;orthogonalLoop=1;jettySize=auto;html=1;dashed=1;" edge="1" parent="WIyWlLk6GJQsqaUBKTNV-1" source="kCM1FT8XMwVdJC8RZSaU-246" target="kCM1FT8XMwVdJC8RZSaU-15">
          <mxGeometry relative="1" as="geometry" />
        </mxCell>
        <mxCell id="kCM1FT8XMwVdJC8RZSaU-246" value="&lt;span style=&quot;font-weight: normal;&quot;&gt;BcryptAdapter&lt;/span&gt;" style="swimlane;fontStyle=1;align=center;verticalAlign=top;childLayout=stackLayout;horizontal=1;startSize=26;horizontalStack=0;resizeParent=1;resizeParentMax=0;resizeLast=0;collapsible=1;marginBottom=0;whiteSpace=wrap;html=1;" parent="WIyWlLk6GJQsqaUBKTNV-1" vertex="1" collapsed="1">
          <mxGeometry x="1010" y="-510" width="120" height="30" as="geometry">
            <mxRectangle x="1136" y="-370" width="270" height="94" as="alternateBounds" />
          </mxGeometry>
        </mxCell>
        <mxCell id="kCM1FT8XMwVdJC8RZSaU-248" value="" style="line;strokeWidth=1;fillColor=none;align=left;verticalAlign=middle;spacingTop=-1;spacingLeft=3;spacingRight=3;rotatable=0;labelPosition=right;points=[];portConstraint=eastwest;strokeColor=inherit;" parent="kCM1FT8XMwVdJC8RZSaU-246" vertex="1">
          <mxGeometry y="26" width="270" height="8" as="geometry" />
        </mxCell>
        <mxCell id="kCM1FT8XMwVdJC8RZSaU-250" value="- salt: number" style="text;strokeColor=none;fillColor=none;align=left;verticalAlign=top;spacingLeft=4;spacingRight=4;overflow=hidden;rotatable=0;points=[[0,0.5],[1,0.5]];portConstraint=eastwest;whiteSpace=wrap;html=1;" parent="kCM1FT8XMwVdJC8RZSaU-246" vertex="1">
          <mxGeometry y="34" width="270" height="26" as="geometry" />
        </mxCell>
        <mxCell id="kCM1FT8XMwVdJC8RZSaU-253" value="" style="line;strokeWidth=1;fillColor=none;align=left;verticalAlign=middle;spacingTop=-1;spacingLeft=3;spacingRight=3;rotatable=0;labelPosition=right;points=[];portConstraint=eastwest;strokeColor=inherit;" parent="kCM1FT8XMwVdJC8RZSaU-246" vertex="1">
          <mxGeometry y="60" width="270" height="8" as="geometry" />
        </mxCell>
        <mxCell id="kCM1FT8XMwVdJC8RZSaU-249" value="+ &amp;lt;&amp;lt;constructor&amp;gt;&amp;gt; BcryptAdapter (salt: number)" style="text;strokeColor=none;fillColor=none;align=left;verticalAlign=top;spacingLeft=4;spacingRight=4;overflow=hidden;rotatable=0;points=[[0,0.5],[1,0.5]];portConstraint=eastwest;whiteSpace=wrap;html=1;" parent="kCM1FT8XMwVdJC8RZSaU-246" vertex="1">
          <mxGeometry y="68" width="270" height="26" as="geometry" />
        </mxCell>
        <mxCell id="QJs-KclyGJPvYKhieISj-48" style="edgeStyle=orthogonalEdgeStyle;rounded=0;orthogonalLoop=1;jettySize=auto;html=1;entryX=0.545;entryY=0;entryDx=0;entryDy=0;entryPerimeter=0;dashed=1;" edge="1" parent="WIyWlLk6GJQsqaUBKTNV-1" source="kCM1FT8XMwVdJC8RZSaU-144" target="kCM1FT8XMwVdJC8RZSaU-29">
          <mxGeometry relative="1" as="geometry" />
        </mxCell>
        <mxCell id="kCM1FT8XMwVdJC8RZSaU-144" value="EmailValidatorAdapter" style="swimlane;fontStyle=0;align=center;verticalAlign=top;childLayout=stackLayout;horizontal=1;startSize=26;horizontalStack=0;resizeParent=1;resizeParentMax=0;resizeLast=0;collapsible=1;marginBottom=0;whiteSpace=wrap;html=1;" parent="WIyWlLk6GJQsqaUBKTNV-1" vertex="1" collapsed="1">
          <mxGeometry x="-172" y="-520" width="160" height="30" as="geometry">
            <mxRectangle x="-106" y="-520" width="160" height="34" as="alternateBounds" />
          </mxGeometry>
        </mxCell>
        <mxCell id="kCM1FT8XMwVdJC8RZSaU-146" value="" style="line;strokeWidth=1;fillColor=none;align=left;verticalAlign=middle;spacingTop=-1;spacingLeft=3;spacingRight=3;rotatable=0;labelPosition=right;points=[];portConstraint=eastwest;strokeColor=inherit;" parent="kCM1FT8XMwVdJC8RZSaU-144" vertex="1">
          <mxGeometry y="26" width="160" height="8" as="geometry" />
        </mxCell>
      </root>
    </mxGraphModel>
  </diagram>
</mxfile>
